<?xml version="1.0" standalone="no"?>
<!DOCTYPE svg PUBLIC "-//W3C//DTD SVG 20010904//EN"
 "http://www.w3.org/TR/2001/REC-SVG-20010904/DTD/svg10.dtd">
<svg version="1.0" xmlns="http://www.w3.org/2000/svg"
 width="441.000000pt" height="441.000000pt" viewBox="0 0 441.000000 441.000000"
 preserveAspectRatio="xMidYMid meet">

<g transform="translate(0.000000,441.000000) scale(0.100000,-0.100000)"
fill="#000000" stroke="none">
<path fill="#F7C334" d="M2120 4310 c-36 -4 -100 -21 -141 -37 -81 -32 -86 -35 -469 -313
-140 -102 -266 -193 -280 -202 -14 -9 -64 -45 -111 -80 -75 -55 -255 -185
-862 -625 -77 -57 -145 -110 -150 -118 -11 -21 17 -65 41 -65 9 1 49 24 88 53
40 29 103 74 140 101 38 27 92 66 119 86 28 20 156 113 285 207 129 93 352
254 495 358 143 103 283 204 310 224 28 21 93 68 145 106 52 38 118 85 145
105 107 78 201 110 327 110 87 0 163 -17 231 -52 34 -17 379 -262 1160 -822
131 -94 248 -178 260 -186 13 -8 109 -77 214 -152 105 -76 198 -138 206 -138
23 0 50 36 42 59 -5 18 -203 164 -615 456 -226 160 -371 264 -465 332 -55 40
-111 80 -125 90 -14 10 -153 110 -310 222 -157 112 -312 216 -345 231 -102 46
-219 64 -335 50z"/>
<path fill="#F7C334" d="M2060 3991 c-95 -30 -81 -22 -506 -318 -833 -581 -1254 -880 -1254
-890 0 -6 4 -15 10 -18 5 -3 145 89 310 205 l301 210 1278 0 1278 0 249 -174
c137 -96 271 -190 298 -210 37 -27 53 -33 63 -25 7 6 10 15 8 20 -5 7 -126 93
-567 402 -22 15 -144 102 -273 192 -128 91 -253 178 -277 195 -24 16 -87 60
-140 97 -385 270 -399 278 -475 305 -94 33 -215 37 -303 9z m250 -32 c24 -5
66 -21 92 -34 40 -20 418 -277 468 -318 14 -12 237 -168 294 -207 97 -65 246
-174 243 -176 -5 -5 -2409 -5 -2414 -1 -3 3 157 120 243 177 21 14 357 250
619 435 110 78 170 109 235 125 50 12 167 11 220 -1z"/>
<path fill="#F7C334" d="M1890 3816 c0 -50 52 -139 149 -254 39 -46 49 -53 72 -48 18 3 32 -1
43 -13 16 -17 10 -24 -89 -116 -96 -89 -127 -135 -93 -135 7 0 61 48 120 106
l106 107 111 -107 c99 -98 131 -118 131 -83 0 7 -47 59 -104 116 l-105 105 40
48 c36 42 46 48 78 48 34 0 44 7 105 76 38 41 67 77 64 79 -2 2 -28 -21 -58
-51 -30 -30 -64 -59 -75 -65 -11 -6 11 21 49 60 39 39 67 74 63 78 -4 4 -40
-24 -79 -63 -78 -75 -73 -62 9 26 75 80 55 76 -27 -5 -39 -38 -70 -65 -70 -60
0 5 30 40 67 77 37 37 65 69 62 72 -2 2 -39 -26 -82 -62 -68 -60 -77 -71 -77
-102 0 -27 -9 -44 -47 -82 l-46 -47 -150 154 c-82 85 -153 155 -158 155 -5 0
-9 -6 -9 -14z m120 -162 c70 -84 76 -112 9 -35 -43 49 -85 111 -75 111 2 0 33
-34 66 -76z"/>
<path fill="#FFFFFF" d="M960 2835 l0 -175 70 0 c63 0 70 2 70 20 0 17 -7 20 -50 20 l-50 0 0
54 0 55 53 3 c45 3 52 6 55 26 3 21 0 22 -52 22 l-56 0 0 55 0 55 55 0 c48 0
55 2 55 20 0 18 -7 20 -75 20 l-75 0 0 -175z"/>
<path fill="#FFFFFF" d="M1160 2835 l0 -175 80 0 c73 0 80 2 80 20 0 18 -7 20 -55 20 l-55 0
0 155 0 155 -25 0 -25 0 0 -175z"/>
<path fill="#FFFFFF" d="M1615 2998 c-7 -22 -75 -318 -75 -329 0 -6 10 -9 22 -7 17 2 25 13
33 48 10 41 14 45 40 45 26 0 31 -5 45 -50 12 -39 20 -50 36 -51 21 0 21 1 8
55 -7 31 -26 111 -41 179 -22 102 -30 122 -45 122 -10 0 -21 -6 -23 -12z m34
-175 c1 -14 -5 -23 -14 -23 -17 0 -18 4 -8 51 5 28 7 30 14 14 4 -11 8 -30 8
-42z"/>
<path fill="#FFFFFF" d="M1799 2984 c-18 -19 -24 -37 -24 -69 0 -49 20 -77 76 -106 41 -20 52
-39 43 -74 -13 -52 -74 -38 -74 16 0 25 -4 29 -26 29 -26 0 -26 -2 -20 -42 8
-53 36 -78 86 -78 49 0 80 35 80 91 0 44 -27 81 -80 107 -28 14 -36 23 -38 52
-3 32 15 60 39 60 16 0 39 -33 39 -56 0 -17 5 -24 20 -24 16 0 20 7 20 34 0
79 -88 117 -141 60z"/>
<path fill="#FFFFFF" d="M2050 2913 c-13 -54 -31 -132 -41 -173 -13 -53 -15 -76 -7 -81 21
-13 34 2 47 51 12 45 16 50 42 50 25 0 29 -5 39 -42 17 -66 18 -67 39 -65 12
1 21 2 21 4 0 2 -64 284 -75 331 -3 13 -13 22 -24 22 -15 0 -23 -17 -41 -97z
m59 -100 c1 -7 -8 -13 -19 -13 -17 0 -19 4 -14 28 10 43 18 49 25 22 4 -14 7
-31 8 -37z"/>
<path fill="#FFFFFF" d="M2230 2830 l0 -180 35 0 c52 0 103 25 115 55 6 15 10 74 10 131 0
146 -17 173 -107 174 l-53 0 0 -180z m98 128 c8 -8 12 -50 12 -123 0 -118 -6
-135 -47 -135 -23 0 -23 1 -23 135 0 134 0 135 23 135 13 0 28 -5 35 -12z"/>
<path fill="#FFFFFF" d="M2471 2991 c-27 -27 -34 -74 -29 -191 4 -118 17 -140 82 -140 75 1
81 12 84 163 3 123 2 134 -18 160 -27 34 -89 38 -119 8z m79 -31 c11 -7 16
-34 18 -114 4 -110 -5 -146 -36 -146 -36 0 -42 21 -42 137 0 96 2 113 18 122
21 13 23 13 42 1z"/>
<path fill="#FFFFFF" d="M2660 2830 l0 -180 25 0 c25 0 25 1 25 80 0 78 1 80 24 80 34 0 47
-21 51 -87 2 -32 4 -61 4 -65 1 -5 10 -8 22 -8 20 0 21 3 15 83 -3 45 -6 89
-7 97 0 8 2 32 6 52 9 46 1 82 -25 108 -16 16 -34 20 -80 20 l-60 0 0 -180z
m101 130 c14 -8 19 -21 19 -50 0 -29 -5 -42 -19 -50 -42 -22 -51 -14 -51 50 0
64 9 72 51 50z"/>
<path fill="#FFFFFF" d="M3070 2830 l0 -180 29 0 c61 0 93 13 112 44 17 27 19 46 17 148 -3
107 -5 118 -27 142 -20 22 -33 26 -78 26 l-53 0 0 -180z m108 19 c4 -134 0
-149 -38 -149 l-30 0 0 128 c0 71 3 131 6 134 3 3 17 3 32 -1 27 -7 27 -8 30
-112z"/>
<path fill="#FFFFFF" d="M3280 2830 l0 -180 75 0 c73 0 75 1 75 25 0 23 -3 25 -50 25 l-50 0
0 55 0 55 51 0 c47 0 50 2 47 23 -3 19 -9 22 -50 22 l-48 0 0 55 0 55 47 0
c42 0 48 3 51 23 3 21 0 22 -72 22 l-76 0 0 -180z"/>
<path fill="#FFFFFF" d="M327 2634 c-4 -4 -7 -216 -7 -471 l0 -463 80 0 80 0 0 156 0 155 43
-3 42 -3 40 -152 40 -153 77 0 c43 0 78 3 78 6 0 3 -18 75 -41 160 l-40 155
26 20 c51 41 55 61 55 286 0 189 -2 211 -20 240 -38 63 -54 68 -260 71 -102 2
-189 0 -193 -4z m313 -173 c13 -25 13 -231 0 -265 -9 -25 -13 -26 -85 -26
l-75 0 0 155 0 155 75 0 c63 0 76 -3 85 -19z"/>
<path fill="#FFFFFF" d="M3609 2203 c0 -235 -2 -439 -4 -453 -8 -63 -11 -62 190 -58 168 3
186 5 212 24 62 47 63 50 70 415 5 294 4 341 -11 391 -12 42 -24 63 -49 80
-30 22 -42 23 -219 26 l-188 3 -1 -428z m299 265 c14 -14 17 -584 3 -606 -9
-14 -35 -17 -109 -14 l-42 2 0 301 c1 165 4 307 7 315 7 18 123 20 141 2z"/>
<path fill="#FFFFFF" d="M925 2488 c-3 -18 -4 -202 -3 -408 l3 -375 78 -3 77 -3 0 411 0 410
-75 0 -74 0 -6 -32z"/>
<path fill="#FFFFFF" d="M1304 2510 c-51 -16 -91 -70 -99 -132 -4 -29 -5 -172 -3 -318 3 -294
5 -300 71 -340 27 -17 51 -20 162 -20 204 0 235 27 235 207 l0 103 -70 0 c-66
0 -70 -1 -71 -22 -3 -134 -11 -148 -89 -148 -86 0 -85 -4 -88 259 -3 221 -2
231 17 250 16 16 34 21 74 21 28 0 58 -4 66 -9 10 -6 17 -35 20 -83 l6 -73 68
-3 67 -3 0 108 c0 123 -14 158 -72 190 -38 20 -241 29 -294 13z"/>
<path fill="#FFFFFF" d="M1797 2513 c-4 -3 -7 -187 -7 -409 l0 -402 70 -4 c39 -2 75 -2 80 0
6 2 10 70 10 168 l0 164 75 0 75 0 2 -162 3 -163 78 -3 77 -3 0 411 0 411 -77
-3 -78 -3 -2 -140 c-1 -77 -2 -152 -3 -167 l0 -28 -75 0 -75 0 0 170 0 170
-73 0 c-41 0 -77 -3 -80 -7z"/>
<path fill="#FFFFFF" d="M2537 2513 c-11 -21 -201 -803 -195 -808 10 -11 109 -15 127 -6 11 6
24 38 35 86 l18 76 111 -3 111 -3 21 -80 20 -80 64 -3 c35 -2 68 1 73 6 9 9
-172 765 -193 803 -8 16 -21 19 -99 19 -49 0 -91 -3 -93 -7z m136 -366 c19
-81 31 -149 29 -152 -9 -9 -142 -5 -142 4 0 9 57 252 66 284 3 10 8 17 10 15
2 -2 19 -70 37 -151z"/>
<path fill="#FFFFFF" d="M3034 2513 c-11 -8 -27 -783 -17 -810 7 -20 139 -17 147 3 3 9 6 65
6 125 l0 109 53 0 52 0 30 -123 30 -122 68 -3 c49 -2 69 1 72 11 3 7 -8 69
-25 137 l-30 124 25 26 c36 37 47 110 43 273 -2 121 -6 147 -23 177 -38 64
-66 73 -253 77 -92 2 -172 1 -178 -4z m277 -153 c17 -10 19 -22 19 -130 0
-139 -1 -140 -99 -140 l-61 0 0 140 0 140 61 0 c33 0 69 -5 80 -10z"/>
<path fill="#F7C334" d="M307 1633 c-4 -3 -7 -10 -7 -14 0 -7 197 -144 785 -544 132 -90 254
-173 270 -185 169 -121 583 -397 630 -420 158 -75 337 -63 492 34 51 32 395
266 456 310 27 20 697 479 840 576 140 94 307 213 317 225 10 12 9 16 -3 21
-9 3 -46 -15 -90 -45 l-74 -51 -1724 0 -1724 0 -75 50 c-78 52 -83 54 -93 43z
m3482 -184 c-41 -28 -146 -101 -234 -161 -88 -60 -221 -151 -295 -202 -575
-394 -820 -561 -852 -577 -21 -11 -63 -26 -94 -34 -67 -17 -70 -15 -104 73
-42 110 -15 187 74 212 91 25 164 -9 193 -91 21 -58 31 -45 32 41 1 75 -13
117 -51 157 -38 39 -22 43 37 10 23 -13 47 -37 57 -57 l17 -35 0 40 c0 48 -20
109 -46 137 -10 11 -38 31 -63 44 -32 16 -39 23 -24 24 37 0 88 -22 121 -53
36 -34 41 -31 18 12 -24 48 -71 79 -137 92 l-62 12 39 17 40 17 -47 8 c-94 14
-173 -24 -204 -99 -20 -48 -36 -55 -67 -32 -27 21 -37 69 -27 133 19 128 24
149 41 161 26 18 22 68 -7 87 -26 17 -64 20 -64 5 0 -5 -13 -10 -30 -10 -28 0
-29 -1 -18 -25 10 -22 8 -30 -10 -55 -28 -37 -29 -64 -3 -57 24 6 21 -4 -31
-94 -109 -189 -92 -283 83 -473 98 -105 125 -161 96 -200 -13 -17 -16 -17 -78
-2 -85 22 -119 42 -429 256 -146 100 -321 220 -390 267 -69 46 -172 117 -230
157 -58 39 -184 125 -280 190 -96 66 -186 127 -199 138 -23 17 22 18 1639 18
l1664 0 -75 -51z"/>
<path fill="#F7C334" d="M117 1549 c-8 -11 -13 -29 -10 -39 4 -14 337 -258 638 -466 16 -11
102 -72 190 -134 279 -198 396 -280 570 -403 94 -66 188 -133 210 -149 193
-137 246 -165 340 -186 90 -20 149 -23 223 -12 130 18 207 55 387 182 127 89
299 210 373 262 41 28 88 61 105 73 18 12 89 62 159 110 70 48 227 158 348
243 122 85 322 225 443 310 150 105 223 162 225 176 2 11 -7 29 -18 39 -21 19
-22 19 -57 0 -20 -11 -109 -71 -199 -135 -90 -63 -237 -166 -326 -228 -90 -62
-395 -276 -678 -474 -283 -199 -540 -376 -570 -395 -146 -90 -351 -99 -502
-22 -20 10 -261 177 -535 371 -274 193 -516 365 -538 380 -22 16 -86 61 -142
101 -56 39 -182 128 -279 197 -98 69 -207 146 -243 172 -74 53 -93 57 -114 27z"/>
</g>
</svg>
